PathFileType	3	(X/Y/Z)	D:\VICON_DB\Goncalves\Pilot01\09-03-2026\walking_02.trc
DataRate	CameraRate	NumFrames	NumMarkers	Units	OrigDataRate	OrigDataStartFrame	OrigNumFrames
200.0	200.0	8	34	mm	200.0	976	1300	
Frame#	Time	LASI			RASI			LPSI			RPSI			LTHI			LTHAP			LTHAD			LKNE			LKNM			LTIB			LTIAP			LTIAD			LANK			LMED			LHEE			LTOE			LFMH			LSMH			LVMH			RTHI			RTHAP			RTHAD			RKNE			RKNM			RTIB			RTIAP			RTIAD			RANK			RMED			RHEE			RTOE			RFMH			RSMH			RVMH			
		X1	Y1	Z1	X2	Y2	Z2	X3	Y3	Z3	X4	Y4	Z4	X5	Y5	Z5	X6	Y6	Z6	X7	Y7	Z7	X8	Y8	Z8	X9	Y9	Z9	X10	Y10	Z10	X11	Y11	Z11	X12	Y12	Z12	X13	Y13	Z13	X14	Y14	Z14	X15	Y15	Z15	X16	Y16	Z16	X17	Y17	Z17	X18	Y18	Z18	X19	Y19	Z19	X20	Y20	Z20	X21	Y21	Z21	X22	Y22	Z22	X23	Y23	Z23	X24	Y24	Z24	X25	Y25	Z25	X26	Y26	Z26	X27	Y27	Z27	X28	Y28	Z28	X29	Y29	Z29	X30	Y30	Z30	X31	Y31	Z31	X32	Y32	Z32	X33	Y33	Z33	X34	Y34	Z34	
976	4.875	377.21683	889.38519	1897.251	117.09672	893.8064	1887.0602				228.18594	940.95734	1693.4194	391.88928	721.91486	1959.9688	413.88541	774.39252	1911.6047	418.7955	646.70044	1957.2125	394.49899	486.48862	1982.3528				399.11728	307.3248	1898.5365	346.69781	363.19922	1982.4525	365.34811	270.11417	1926.9049	359.55118	125.74102	1802.799				303.28265	136.56136	1761.1165	334.72644	98.778549	1877.774	304.47171	55.746975	1917.4125				384.85785	44.622303	1898.3129	98.251122	611.79095	1859.4166	100.78375	743.24512	1890.4137	130.8371	653.18768	1916.3539	126.96603	477.75098	1815.2698				134.06415	277.83664	1785.6678	181.42279	331.81161	1829.0981	190.23996	250.71303	1816.7747	190.02202	58.803131	1719.6571				230.31526	60.031925	1683.1178	206.46432	46.815784	1839.7139	238.7113	48.947399	1850.0784				165.79938	14.126337	1849.9064
977	4.88	376.97653	889.42987	1902.6774	116.89576	893.49603	1891.9821				228.4015	940.75519	1698.5581	391.59653	722.59705	1966.0062	413.82291	774.87433	1917.548	418.53537	647.37415	1963.7568	393.97006	487.22357	1989.2687				399.15857	305.51862	1910.3918	346.33148	363.95142	1992.0464	365.15494	269.07858	1939.791	359.96796	120.84467	1820.3459				303.71246	130.19751	1778.2408	334.99808	96.342522	1896.2327	304.6297	54.713348	1937.0753				385.29739	43.226124	1918.4978	98.832138	611.36469	1862.3243	101.02211	742.4826	1894.4677	131.28337	652.31042	1919.6331	127.0387	477.59775	1816.9441				134.14343	277.79803	1786.3442	181.52127	331.66251	1829.8973	190.3243	250.60857	1817.2325	190.21198	58.987698	1719.578				230.50719	60.128525	1683.1573	206.48216	46.555054	1840.2031	238.77277	49.390671	1849.1423				165.78328	14.077454	1849.9376
978	4.885	376.76129	889.40656	1908.0984	116.72403	893.14264	1896.9366				228.61699	940.52216	1703.7096	391.32114	723.13184	1971.9695	413.77853	775.23834	1923.4468	418.29575	647.90704	1970.1859	393.48703	487.83026	1995.9907				399.25299	303.7298	1922.1868	346.02817	364.6488	2001.5078	365.03931	268.09909	1952.6274	360.43015	116.08883	1838.056				304.19571	123.97043	1795.5602	335.29193	94.025642	1914.8324	304.80011	53.876343	1956.7449				385.70111	42.006409	1938.7395	99.407097	610.92273	1865.2133	101.26117	741.69348	1898.5239	131.72142	651.40326	1922.8873	127.10595	477.44067	1818.6093				134.21951	277.76315	1787.0159	181.61559	331.51773	1830.689	190.40855	250.53242	1817.6251	190.3958	59.161396	1719.5161				230.69817	60.227718	1683.1976	206.59224	46.774727	1839.8058	238.86722	49.672253	1848.5914				165.77014	14.030808	1849.9644
979	4.89	376.57092	889.31116	1913.515	116.58027	892.74384	1901.9244				228.83241	940.25397	1708.8766	391.06512	723.51172	1977.8574	413.75269	775.47894	1929.3014	418.07935	648.29169	1976.4961	393.0517	488.30273	2002.5215				399.39938	301.9682	1933.9138	345.7894	365.29605	2010.8352	364.99973	267.18674	1965.4014	360.93454	111.50056	1855.9133				304.73111	117.91262	1813.0581	335.60791	91.841957	1933.5688	304.99454	53.25169	1976.4048				386.06177	40.978539	1959.0216	99.968361	610.46429	1868.0853	101.497	740.87903	1902.5829	132.14243	650.46661	1926.12	127.16526	477.27789	1820.2704				134.2905	277.73035	1787.6854	181.70273	331.3725	1831.4788	190.49031	250.47758	1817.9766	190.57474	59.325302	1719.4719				230.88849	60.332233	1683.2405	206.79362	47.455677	1838.5607	238.98029	49.734699	1848.5531				165.76001	13.987955	1849.9841
980	4.895	376.40527	889.13971	1918.9283	116.46307	892.29749	1906.9463				229.04773	939.94611	1714.0632	390.83066	723.72992	1983.6696	413.74567	775.5907	1935.1121	417.88931	648.52118	1982.6841	392.66476	488.63455	2008.8656				399.59537	300.24332	1945.5659	345.61517	365.89783	2020.0262	365.03284	266.35226	1978.099	361.47589	107.10619	1873.8988				305.31473	112.05383	1830.7151	335.9465	89.805122	1952.4359	305.22806	52.853413	1996.0377				386.37317	40.158901	1979.3242	100.50875	609.98816	1870.9437	101.72628	740.04022	1906.6444	132.53871	649.50201	1929.3356	127.21427	477.10779	1821.9343				134.35408	277.69781	1788.3551	181.77881	331.22144	1832.2727	190.56679	250.4364	1818.3113	190.75021	59.480827	1719.4449				231.07866	60.444904	1683.2885	207.07735	48.536335	1836.5859	239.08647	49.56073	1849.0525				165.75281	13.9505	1849.9955
981	4.9	376.26434	888.88855	1924.3411	116.37093	891.80182	1912.0024				229.26299	939.59448	1719.2716	390.62039	723.78009	1989.4048	413.75809	775.56866	1940.8796	417.72906	648.58923	1988.7477	392.32596	488.81921	2015.0306				399.83759	298.56427	1957.1364	345.50369	366.45883	2029.079	365.13306	265.60559	1990.7061	362.04697	102.93089	1891.9895				305.9404	106.42101	1848.5081	336.30844	87.928299	1971.4242	305.51962	52.693424	2015.6265				386.63046	39.564735	1999.6245	101.02185	609.49377	1873.791	101.94623	739.17828	1910.7087	132.90358	648.51147	1932.5393	127.25083	476.92899	1823.6077				134.40768	277.6633	1789.0275	181.83937	331.05856	1833.0774	190.63548	250.40155	1818.6501	190.92361	59.62957	1719.4351				231.26939	60.56826	1683.3427	207.42688	49.91534	1834.0731	239.17165	49.186417	1849.9912				165.7484	13.919802	1849.9963
982	4.905	376.14801	888.55444	1929.7554	116.30228	891.25543	1917.0931				229.47884	939.19641	1724.5024	390.43689	723.6571	1995.063	413.79047	775.40826	1946.6047	417.60223	648.4906	1994.6853	392.03455	488.85104	2021.0261				400.12149	296.93958	1968.619	345.4512	366.98312	2037.9908	365.29227	264.95502	2003.2089	362.63858	98.998116	1910.1589				306.6004	101.03835	1866.411	336.69485	86.224129	1990.519	305.89172	52.781197	2035.1522				386.83032	39.213791	2019.8965	101.50218	608.98114	1876.6312	102.15457	738.29456	1914.7755	133.23138	647.49744	1935.738	127.27323	476.74045	1825.2977				134.44855	277.62445	1789.705	181.87952	330.8775	1833.8997	190.69421	250.36646	1819.0104	191.0963	59.773293	1719.4415				231.46176	60.704578	1683.4045	207.81995	51.469082	1831.2523	239.23723	48.675087	1851.2159				165.7466	13.896692	1849.9851
983	4.91	376.05618	888.13483	1935.174	116.25552	890.6571	1922.219				229.6962	938.74939	1729.755	390.28284	723.35681	2000.6439	413.8432	775.10614	1952.2883	417.51285	648.2215	2000.4961	391.79004	488.72632	2026.8629				400.44199	295.37735	1980.0074	345.45221	367.4744	2046.7589	365.50049	264.40692	2015.5942	363.24023	95.329132	1928.3767				307.28583	95.926933	1884.3938	337.10681	84.704674	2009.6998	306.37128	53.124065	2054.595				386.97061	39.123459	2040.1101	101.94537	608.45044	1879.4686	102.3494	737.39032	1918.844	133.51714	646.46246	1938.9384	127.28025	476.54129	1827.0128				134.47389	277.57877	1790.3905	181.89423	330.67172	1834.7461	190.74124	250.32518	1819.4059	191.2692	59.913895	1719.4635				231.657	60.856052	1683.4749	208.23337	53.080406	1828.3387	239.28824	48.087326	1852.5901				165.74724	13.881445	1849.9618
